<svg
    xmlns="http://www.w3.org/2000/svg" style="display: none;">
    <symbol id="icon-angle-down" viewBox="0 0 512 512">
        <path d="m399 210c0 3-1 5-3 7l-133 133c-2 2-5 3-7 3-2 0-5-1-7-3l-133-133c-2-2-3-4-3-7 0-2 1-4 3-6l15-15c1-1 4-2 6-2 3 0 5 1 7 2l112 113 112-113c2-1 4-2 7-2 2 0 5 1 6 2l15 15c2 2 3 4 3 6z"/>
    </symbol>
    <symbol id="icon-angle-left" viewBox="0 0 512 512">
        <path d="m344 155c0 3-1 5-3 7l-112 112 112 113c2 1 3 4 3 6 0 3-1 5-3 7l-14 14c-2 2-5 3-7 3-2 0-5-1-7-3l-133-133c-2-2-3-4-3-7 0-2 1-4 3-6l133-133c2-2 5-3 7-3 2 0 5 1 7 3l14 14c2 2 3 4 3 6z"/>
    </symbol>
    <symbol id="icon-angle-right" viewBox="0 0 512 512">
        <path d="m335 274c0 3-1 5-3 7l-133 133c-2 2-5 3-7 3-2 0-5-1-7-3l-14-14c-2-2-3-4-3-7 0-2 1-5 3-6l112-113-112-112c-2-2-3-4-3-7 0-2 1-4 3-6l14-14c2-2 5-3 7-3 2 0 5 1 7 3l133 133c2 2 3 4 3 6z"/>
    </symbol>
    <symbol id="icon-angle-up" viewBox="0 0 512 512">
        <path d="m399 338c0 3-1 5-3 7l-15 14c-1 2-4 3-6 3-3 0-5-1-7-3l-112-112-112 112c-2 2-4 3-7 3-2 0-5-1-6-3l-15-14c-2-2-3-4-3-7 0-2 1-4 3-6l133-133c2-2 5-3 7-3 2 0 5 1 7 3l133 133c2 2 3 4 3 6z"/>
    </symbol>
    <symbol id="icon-heart-o" viewBox="0 0 512 512">
        <path d="m475 170c0-15-2-29-6-41-4-11-9-21-15-28-7-7-15-12-24-17-9-4-18-7-27-9-8-1-18-2-28-2-9 0-20 3-32 7-11 5-22 11-31 19-10 7-18 14-25 20-7 7-12 13-17 18-3 4-8 6-14 6-6 0-11-2-14-6-5-5-10-11-17-18-7-6-15-13-25-20-9-8-20-14-31-19-12-4-23-7-32-7-10 0-20 1-28 2-9 2-18 5-27 9-9 5-17 10-24 17-6 7-11 17-15 28-4 12-6 26-6 41 0 32 17 66 53 102l166 160 166-160c36-36 53-70 53-102z m37 0c0 42-22 85-65 129l-178 171c-4 4-8 5-13 5-5 0-9-1-13-5l-178-172c-2-1-4-4-8-7-3-4-8-10-16-19-7-9-13-18-19-28-6-9-11-21-15-34-5-14-7-27-7-40 0-42 12-74 36-98 24-24 58-35 101-35 11 0 23 2 36 6 12 4 23 9 34 16 11 7 20 14 27 20 8 6 15 12 22 19 7-7 14-13 22-19 7-6 16-13 27-20 11-7 22-12 34-16 13-4 25-6 36-6 43 0 77 11 101 35 24 24 36 56 36 98z"/>
    </symbol>
    <symbol id="icon-android-done" viewBox="0 0 512 512">
        <path d="m186 340l-90-91-32 31 122 122 262-261-32-31z"/>
    </symbol>
    <symbol id="icon-android-close" viewBox="0 0 512 512">
        <path d="m405 137l-30-30-119 119-119-119-30 30 119 119-119 119 30 30 119-119 119 119 30-30-119-119z"/>
    </symbol>
    <symbol id="icon-android-sunny" viewBox="0 0 512 512">
        <path d="m256 160c26 0 50 10 68 28 18 18 28 43 28 68 0 26-10 50-28 68-18 18-42 28-68 28-25 0-50-10-68-28-18-18-28-42-28-68 0-25 10-50 28-68 18-18 43-28 68-28m21-128l-42 0 0 64 42 0z m129 44l-38 38 30 30 38-38z m-300 0l-30 30 38 38 30-30z m150 52c-70 0-128 58-128 128 0 70 58 128 128 128 70 0 128-58 128-128 0-70-58-128-128-128z m224 107l-64 0 0 42 64 0z m-384 0l-64 0 0 42 64 0z m302 133l-30 30 38 38 30-30z m-284 0l-38 38 30 30 38-38z m163 48l-42 0 0 64c6 0 42 0 42 0z"/>
    </symbol>
    <symbol id="icon-gear-b" viewBox="0 0 512 512">
        <path d="m448 294l0-76-43 0c-3-15-9-28-16-41l30-30-54-54-29 29c-13-7-27-13-42-17l0-41-76 0 0 41c-15 4-29 10-41 17l-30-29-54 54 30 30c-7 13-13 26-16 41l-43 0 0 76 44 0c4 14 10 27 17 39l-32 32 54 54 33-32c11 7 24 12 38 15l0 46 76 0 0-46c14-3 27-8 38-15l33 32 54-54-32-32c8-12 13-25 17-39z m-192 16c-30 0-54-24-54-54 0-30 24-54 54-54 30 0 54 24 54 54 0 30-24 54-54 54z"/>
    </symbol>
    <symbol id="icon-ios-arrow-down" viewBox="0 0 512 512">
        <path d="m397 160l19 21-160 171-160-171 19-21 141 151z"/>
    </symbol>

      <symbol id="close" viewBox="0 0 365.696 365.696"  xmlns="http://www.w3.org/2000/svg">
 <path d="M243.188 182.86L356.32 69.726c12.5-12.5 12.5-32.766 0-45.247L341.238 9.398c-12.504-12.503-32.77-12.503-45.25 0L182.86 122.528 69.727 9.374c-12.5-12.5-32.766-12.5-45.247 0L9.375 24.457c-12.5 12.504-12.5 32.77 0 45.25l113.152 113.152L9.398 295.99c-12.503 12.503-12.503 32.769 0 45.25L24.48 356.32c12.5 12.5 32.766 12.5 45.247 0l113.132-113.132L295.99 356.32c12.503 12.5 32.769 12.5 45.25 0l15.081-15.082c12.5-12.504 12.5-32.77 0-45.25zm0 0"/>
 </symbol>


  <symbol id="blog" viewBox="0 0 259 265"  xmlns="http://www.w3.org/2000/svg">
 <path fill-rule="evenodd" class="ashp0" d="M247.04 114.6l-45.94 45.93v96.62c0 3.87-3.14 7.01-7.01 7.01H7.02c-3.87 0-7.01-3.14-7.01-7.01V101.56c0-3.87 3.14-7.01 7.01-7.01 3.88 0 7.02 3.14 7.02 7.01v148.58h173.04v-75.58l-13.63 13.63c-1.01 1-2.29 1.68-3.68 1.93l-53.61 9.95c-.43.08-.86.12-1.28.12a7.02 7.02 0 0 1-4.96-2.06 7.011 7.011 0 0 1-1.94-6.23l9.95-53.61a7 7 0 0 1 1.93-3.68l17.19-17.18c2.74-2.74 7.18-2.74 9.91 0 2.74 2.73 2.74 7.17 0 9.91l-12.22 12.23 33.75 33.75 63.67-63.68-33.75-33.75-22.21 22.22a7.013 7.013 0 0 1-9.92 0 7.013 7.013 0 0 1 0-9.92l20.8-20.8V14.13h-27.75v26.65c0 3.87-3.14 7.01-7.01 7.01H48.8c-3.88 0-7.02-3.14-7.02-7.01V14.13H14.04v46.09c0 3.87-3.14 7.01-7.02 7.01-3.87 0-7.01-3.14-7.01-7.01V7.12C.01 3.25 3.15.11 7.02.11h187.07c3.87 0 7.01 3.14 7.01 7.01V55.1c5.75-3.38 12.31-5.18 19.15-5.18 10.12 0 19.63 3.94 26.79 11.1 7.15 7.15 11.09 16.67 11.09 26.79 0 10.12-3.94 19.63-11.09 26.79zM145.31 14.13h-89.5v19.64h89.5V14.13zm74.94 49.81c-3.97 0-7.78.97-11.18 2.77l32.27 32.28c1.81-3.41 2.77-7.22 2.77-11.18 0-6.38-2.48-12.37-6.99-16.88-4.51-4.5-10.5-6.99-16.87-6.99zm-96.62 120.48l30.48-5.65-24.82-24.82-5.66 30.47z"/>
 <path class="ashp0" d="M155.73 115.68c1.79 0 3.59-.69 4.96-2.06l1.79-1.79a7.013 7.013 0 0 0 0-9.92 7.013 7.013 0 0 0-9.92 0l-1.79 1.8c-2.74 2.74-2.74 7.18 0 9.91a6.99 6.99 0 0 0 4.96 2.06zM7.02 89.17c3.88 0 7.02-3.14 7.02-7.01v-2.54c0-3.87-3.14-7.01-7.02-7.01-3.87 0-7.01 3.14-7.01 7.01v2.54c0 3.87 3.14 7.01 7.01 7.01zM48.8 108.57h63.1c3.87 0 7.01-3.14 7.01-7.01 0-3.87-3.14-7.01-7.01-7.01H48.8c-3.88 0-7.02 3.14-7.02 7.01 0 3.87 3.14 7.01 7.02 7.01zM48.8 139.14h31.55c3.87 0 7.01-3.13 7.01-7.01 0-3.87-3.14-7.01-7.01-7.01H48.8c-3.88 0-7.02 3.14-7.02 7.01 0 3.88 3.14 7.01 7.02 7.01zM48.8 169.72h31.55c3.87 0 7.01-3.14 7.01-7.01 0-3.88-3.14-7.02-7.01-7.02H48.8a7.016 7.016 0 1 0 0 14.03zM48.8 200.29h31.55c3.87 0 7.01-3.14 7.01-7.01 0-3.87-3.14-7.01-7.01-7.01H48.8c-3.88 0-7.02 3.14-7.02 7.01 0 3.87 3.14 7.01 7.02 7.01zM48.8 230.86h63.1c3.87 0 7.01-3.14 7.01-7.01 0-3.87-3.14-7.01-7.01-7.01H48.8c-3.88 0-7.02 3.14-7.02 7.01 0 3.88 3.14 7.01 7.02 7.01z"/>
 </symbol>

 

  <symbol id="arrow-right" viewBox="0 0 167.4 62"  xmlns="http://www.w3.org/2000/svg">
 <path d="M160.5 20.4L126.7.9c-3.1-1.8-7.1-.7-8.9 2.4s-.7 7.1 2.4 8.9l21.5 12.4H33.5c-3.6 0-6.5 2.9-6.5 6.5s2.9 6.5 6.5 6.5h108.3L120.3 50c-3.1 1.8-4.2 5.8-2.4 8.9 1.2 2.1 3.4 3.2 5.6 3.2 1.1 0 2.2-.3 3.2-.9l33.8-19.5c4.3-2.5 6.8-6.4 6.8-10.6s-2.4-8.2-6.8-10.7zM6.5 37.5H14c3.6 0 6.5-2.9 6.5-6.5s-2.9-6.5-6.5-6.5H6.5C2.9 24.5 0 27.4 0 31s2.9 6.5 6.5 6.5z"/>
 </symbol>



 <symbol id="star" viewBox="0 0 168 161"  xmlns="http://www.w3.org/2000/svg">
 <path d="M42.5 158.27l41.51-30.16a.81.81 0 0 1 .22 0l41.51 30.16c2.09 1.52 3.98 2.01 5.55 2.01 2.17 0 3.71-.93 4.32-1.38 1.06-.77 4.36-3.73 2.45-9.58l-15.85-48.8c.01-.07.04-.15.07-.21l41.51-30.16c4.98-3.62 4.05-7.95 3.65-9.19-.41-1.25-2.2-5.3-8.36-5.3H138.4a6.496 6.496 0 0 0 0 12.99h5.35l-29.27 21.27c-4.32 3.14-6.34 9.34-4.69 14.42l11.18 34.41-29.27-21.26c-4.32-3.15-10.84-3.15-15.17 0l-29.26 21.26 11.18-34.41c1.65-5.08-.37-11.28-4.69-14.42L24.49 68.65h36.18c5.34 0 10.62-3.83 12.27-8.91l11.18-34.41L95.3 59.74a6.5 6.5 0 0 0 8.18 4.17 6.502 6.502 0 0 0 4.17-8.19L91.73 6.74C89.83.88 85.42.42 84.12.42c-1.31 0-5.71.46-7.61 6.32L60.65 55.53c-.05.05-.12.1-.18.13H9.16c-6.16 0-7.95 4.05-8.36 5.3-.4 1.24-1.33 5.57 3.65 9.19l41.51 30.16c.03.06.06.14.07.21l-15.85 48.8c-1.9 5.86 1.39 8.81 2.45 9.58 1.05.77 4.89 2.99 9.87-.63z"/>
 <path d="M117.6 55.66a6.496 6.496 0 0 0 0 12.99h4.14a6.49 6.49 0 0 0 6.49-6.49c0-3.59-2.9-6.5-6.49-6.5h-4.14z"/>
 </symbol> 



 <symbol id="clock" viewBox="0 0 167.4 167.4"  xmlns="http://www.w3.org/2000/svg">
 <path d="M142.8 24.5c-7.7-7.7-16.6-13.7-26.6-17.9C105.9 2.2 95 0 83.7 0c-15 0-29.6 4-42.4 11.5-12.4 7.3-22.8 17.8-30 30.3-.6 1.1-.9 2.2-.9 3.4 0 2.2 1.2 4.3 3.2 5.5l12.2 7c1 .6 2.1.9 3.2.9 2.2 0 4.4-1.2 5.6-3.2 1.8-3.1.7-7.1-2.4-8.9L26 42.9c4.7-6.6 10.4-12.3 16.9-16.9l3.6 6.3c1.2 2.1 3.4 3.3 5.6 3.3 1.1 0 2.2-.3 3.2-.9 3.1-1.8 4.2-5.8 2.4-8.9l-3.6-6.3c7.2-3.3 15-5.5 23.1-6.2v7.3c0 3.6 2.9 6.5 6.5 6.5s6.5-2.9 6.5-6.5v-7.3c8.2.7 15.9 2.9 23.1 6.2l-3.6 6.3c-1.8 3.1-.7 7.1 2.4 8.9 1 .6 2.1.9 3.2.9 2.2 0 4.4-1.2 5.6-3.3l3.6-6.3c6.5 4.6 12.2 10.4 16.9 16.9l-6.3 3.6c-3.1 1.8-4.2 5.8-2.4 8.9 1.2 2.1 3.4 3.2 5.6 3.2 1.1 0 2.2-.3 3.2-.9l6.3-3.6c3.3 7.1 5.4 14.9 6.2 23.1h-7.3c-3.6 0-6.5 2.9-6.5 6.5s2.9 6.5 6.5 6.5h7.3c-.7 8.2-2.9 15.9-6.2 23.1l-6.3-3.6c-3.1-1.8-7.1-.7-8.9 2.4s-.7 7.1 2.4 8.9l6.3 3.6c-4.6 6.5-10.4 12.3-16.9 16.9l-3.6-6.3c-1.8-3.1-5.8-4.2-8.9-2.4-3.1 1.8-4.2 5.8-2.4 8.9l3.6 6.3c-7.1 3.3-14.9 5.4-23.1 6.2v-7.3c0-3.6-2.9-6.5-6.5-6.5s-6.5 2.9-6.5 6.5v7.3c-8.2-.8-15.9-2.9-23.1-6.2l3.6-6.3c1.8-3.1.7-7.1-2.4-8.9-3.1-1.8-7.1-.7-8.9 2.4l-3.6 6.3c-6.5-4.6-12.2-10.4-16.9-16.9L32 121c3.1-1.8 4.2-5.8 2.4-8.9-1.8-3.1-5.8-4.2-8.9-2.4l-6.3 3.6c-3.3-7.1-5.4-14.9-6.2-23.1h7.3c3.6 0 6.5-2.9 6.5-6.5s-2.9-6.5-6.5-6.5H6.5c-3.6 0-6.5 2.9-6.5 6.5C0 95 2.2 106 6.6 116.3c4.2 10 10.2 18.9 17.9 26.6 7.7 7.7 16.6 13.7 26.6 17.9 10.3 4.4 21.3 6.6 32.6 6.6s22.3-2.2 32.6-6.6c10-4.2 18.9-10.2 26.6-17.9 7.7-7.7 13.7-16.6 17.9-26.6 4.4-10.3 6.6-21.3 6.6-32.6s-2.2-22.3-6.6-32.6c-4.2-10-10.3-18.9-18-26.6z"/>
 <path d="M112.8 61c1.7 0 3.3-.6 4.6-1.9l1-1c2.5-2.5 2.5-6.6 0-9.2-2.5-2.5-6.6-2.5-9.2 0l-1 1c-2.5 2.5-2.5 6.6 0 9.2 1.3 1.3 3 1.9 4.6 1.9zM95.7 62.5l-12 12L70 60.8c-2.5-2.5-6.6-2.5-9.2 0-2.5 2.5-2.5 6.6 0 9.2l18.3 18.3c1.3 1.3 2.9 1.9 4.6 1.9 1.7 0 3.3-.6 4.6-1.9l16.6-16.6c2.5-2.5 2.5-6.6 0-9.2-2.6-2.5-6.7-2.5-9.2 0z"/>
 </symbol>

  <symbol id="author" viewBox="0 0 30.336 30.336"  xmlns="http://www.w3.org/2000/svg">
 <path d="M19.475 27.25H0c0-3.967 2.602-7.346 6.264-8.686-.787-.797-1.357-2.015-1.643-3.848-.377.077-.963-.355-1.137-1.014-.176-.669-.291-1.75.09-1.853a.477.477 0 0 1 .348.052v-1.86c0-2.929-.689-4.648 4.096-5.139l-.043-.01s3.771-.362 4.764-1.257c0 0 .027.754.431 1.582 2.207.847 2.483 2.801 2.421 4.826v1.86a.482.482 0 0 1 .35-.052c.381.104.178 1.226.002 1.896-.17.652-.666 1.04-1.039.97-.279 1.745-.892 2.996-1.74 3.829 3.682 1.326 6.311 4.717 6.311 8.704zM29.986 8.836c.216-.428.349-.904.349-1.416a3.167 3.167 0 0 0-4.369-2.928 3.162 3.162 0 0 0-2.631-1.406 3.169 3.169 0 0 0-3.097 2.51 3.161 3.161 0 0 0-3.07 3.157 3.167 3.167 0 0 0 3.167 3.167c.045 0 .086-.011.13-.013a3.164 3.164 0 0 0 2.87 1.846 3.15 3.15 0 0 0 2.13-.837 3.145 3.145 0 0 0 1.704.505 3.167 3.167 0 0 0 3.167-3.167c0-.513-.133-.99-.35-1.418zm-8.651 5.167a1.25 1.25 0 1 0 0 2.5 1.25 1.25 0 0 0 0-2.5zm-2.138 2.251a.998.998 0 0 0-1.029.969.998.998 0 0 0 .971 1.03.998.998 0 0 0 1.029-.969.998.998 0 0 0-.971-1.03z"/>
 </symbol>

  <symbol id="blog-search" viewBox="0 0 511 512" xmlns="http://www.w3.org/2000/svg">
 <path d="M444.465 4.395c-5.856-5.86-15.356-5.86-21.211 0L307.648 120H45.5c-24.812 0-45 20.188-45 45v209.996c0 24.816 20.188 45 45 45h16v77a15 15 0 0 0 25.723 10.492l85.586-87.492H347.5c24.813 0 45-20.184 45-45V204.852L508.105 89.246c5.856-5.86 5.856-15.355 0-21.215zM306.578 248.344l-42.426-42.426L391.434 78.641l42.425 42.425zm-58.406-15.98l31.96 31.96-54.78 22.82zM362.5 374.995c0 8.274-6.73 15-15 15h-181a15.006 15.006 0 0 0-10.723 4.512L91.5 460.215v-55.219c0-8.281-6.715-15-15-15h-31c-8.27 0-15-6.726-15-15V165c0-8.273 6.73-15 15-15h232.145l-45.313 45.312a15.329 15.329 0 0 0-3.312 5.012L187.5 300h-81c-8.285 0-15 6.715-15 15 0 8.281 6.715 14.988 15 14.988h91.004c1.93 0 4-.394 5.894-1.207l108.774-45.304c1.812-.707 3.64-1.938 5.015-3.313l45.313-45.312zm92.57-275.144l-42.425-42.426 21.214-21.211 42.426 42.426zm0 0"/>
 </symbol>

  <symbol id="add-blog" viewBox="0 -48 511.999 511"  xmlns="http://www.w3.org/2000/svg">
 <path d="M24.86 312.969c3.82 1.91 7.933 3.23 12.175 3.969l-6.61 9.437a15.048 15.048 0 0 0-2.55 6.402l-9.84 66.36a14.998 14.998 0 0 0 21.98 15.39l55.575-30.093c7.676 13.867 22.457 23.28 39.398 23.28 11.516 0 22.035-4.347 30-11.484 7.969 7.137 18.489 11.485 30 11.485 24.817 0 45.004-20.188 45.004-45v-5.742c27.903 13.578 58.973 20.742 90 20.742 32.051 0 63.836-7.352 92.004-21.246v36.246c0 5.2 2.691 10.027 7.113 12.762a15.006 15.006 0 0 0 14.594.656l60.004-30A15.003 15.003 0 0 0 512 362.715V182.71c0-8.285-6.719-15-15-15H393.469l-105.817-51.777 40.203-57.414c4.747-6.782 3.102-16.141-3.687-20.891L275.02 3.21c-6.782-4.746-16.141-3.102-20.891 3.684-6.352 9.07-46.883 66.957-53.192 75.964-12.304-6.464-27.058-6.433-36.417-2.37l-57.079 24.796a44.834 44.834 0 0 0-20.043 17.133L5.492 251.246c-5.32 8.371-7.523 22.734-3.203 35.7 3.8 11.402 11.816 20.644 22.57 26.023zm27.253 60.894l4.922-33.18 13.414-19.16a60.424 60.424 0 0 0 22.73 19.844l-11.57 16.524zm82.875 3.856c-8.27 0-15-6.73-15-15.004v-7.332l5.371-7.668h24.63v15c0 8.273-6.727 15.004-15 15.004zm60.004 0c-8.273 0-15-6.73-15-15.004v-15h30v15c0 8.273-6.73 15.004-15 15.004zM482 353.445l-30.004 15V197.711H482zm-98.598-157.261a15.018 15.018 0 0 0 6.594 1.527h32v125.531c-10.11 3.93-41.5 24.473-92 24.473-53.535 0-86.508-23.711-98.297-28.418a15.168 15.168 0 0 0-6.707-1.582H119.988c-15.34 0-28.02-11.574-29.781-26.45.469-2.175.426-4.41-.07-6.546 1.508-15.14 14.32-27.004 29.851-27.004h92.578c31.364 0 60.856-12.215 83.036-34.395 5.855-5.86 5.855-15.355 0-21.215-5.86-5.859-15.356-5.859-21.215 0-16.516 16.512-38.469 25.61-61.82 25.61h-3.18l60.843-86.899zM235.684 85.543l24.574 17.21-87.496 124.962h-36.625l99.547-142.172zm34.414-49.148l24.578 17.207-17.211 24.578-24.574-17.211zM31.293 266.582l81.422-128.066a14.95 14.95 0 0 1 6.683-5.711l56.364-24.489a15.056 15.056 0 0 1 7.523-.242l-87.289 124.66c-18.45 8.082-32.082 25.176-35.285 45.692-2.742 7.703-14.66 11.594-22.434 7.707-7.316-3.656-10.222-12.34-6.984-19.551zm0 0"/>
 </symbol>

  <symbol id="send" viewBox="0 0 24 24" xmlns="http://www.w3.org/2000/svg">
 <path d="M8.75 17.612v4.638a.751.751 0 0 0 1.354.444l2.713-3.692zM23.685.139a.75.75 0 0 0-.782-.054l-22.5 11.75a.752.752 0 0 0 .104 1.375l6.255 2.138 13.321-11.39L9.775 16.377l10.483 3.583a.753.753 0 0 0 .984-.599l2.75-18.5a.751.751 0 0 0-.307-.722z"/>
 </symbol>


</svg>
